<?xml version="1.0" standalone="no"?>
<!DOCTYPE svg PUBLIC "-//W3C//DTD SVG 20010904//EN"
 "http://www.w3.org/TR/2001/REC-SVG-20010904/DTD/svg10.dtd">
<svg version="1.0" xmlns="http://www.w3.org/2000/svg"
 width="24.000000pt" height="24.000000pt" viewBox="0 0 24.000000 24.000000"
 preserveAspectRatio="xMidYMid meet">

<g transform="translate(0.000000,24.000000) scale(0.100000,-0.100000)"
fill="#000000" stroke="none">
<path d="M42 165 l-47 -44 47 -47 c35 -36 54 -47 77 -47 33 0 94 41 112 75 10
19 6 27 -34 65 -62 58 -92 58 -155 -2z m128 5 c24 -24 26 -77 3 -102 -39 -43
-123 -9 -123 50 0 62 77 95 120 52z"/>
<path d="M93 144 c-20 -21 -1 -69 27 -69 20 0 44 23 45 46 2 28 -52 46 -72 23z
m42 -23 c7 -12 -12 -24 -25 -16 -11 7 -4 25 10 25 5 0 11 -4 15 -9z"/>
</g>
</svg>
